<svg width="65" height="64" viewBox="0 0 65 64" fill="none" xmlns="http://www.w3.org/2000/svg">
<path d="M62.5802 32.0001C62.5802 48.6132 49.1125 62.0809 32.4988 62.0809C15.8857 62.0809 2.41797 48.6132 2.41797 32.0001C2.41797 15.3867 15.8857 1.91895 32.4988 1.91895C49.1125 1.91895 62.5802 15.3867 62.5802 32.0001Z" fill="#F8F7FF"/>
<path d="M43.0825 45.6988H21.9181C21.066 45.6988 20.375 45.0078 20.375 44.1557C20.375 43.3043 21.066 42.6133 21.9181 42.6133H43.0825C43.9346 42.6133 44.625 43.3043 44.625 44.1557C44.625 45.0078 43.9346 45.6988 43.0825 45.6988Z" fill="#B8B8FF"/>
<path d="M32.5 3.83787C28.6975 3.83787 25.0096 4.58225 21.5386 6.05024C18.1855 7.46857 15.1733 9.49941 12.5864 12.0864C9.99948 14.6734 7.96845 17.6853 6.55051 21.0386C5.08266 24.5094 4.33774 28.1976 4.33774 32.0001C4.33774 35.8025 5.08266 39.4905 6.55051 42.9614C7.96845 46.3145 9.99948 49.3268 12.5864 51.9137C15.1733 54.5006 18.1855 56.5316 21.5386 57.9502C25.0096 59.4181 28.6975 60.1623 32.5 60.1623C36.3031 60.1623 39.9911 59.4181 43.4613 57.9502C46.8151 56.5316 49.8267 54.5006 52.4136 51.9137C55.0012 49.3268 57.0316 46.3145 58.4502 42.9614C59.918 39.4905 60.6623 35.8025 60.6623 32.0001C60.6623 28.1976 59.918 24.5094 58.4502 21.0386C57.0316 17.6853 55.0012 14.6734 52.4136 12.0864C49.8267 9.49941 46.8151 7.46857 43.4613 6.05024C39.9911 4.58225 36.3031 3.83787 32.5 3.83787ZM32.5 64.0001C28.181 64.0001 23.9904 63.154 20.0435 61.4844C16.2331 59.8727 12.8107 57.5654 9.873 54.6277C6.93461 51.6893 4.62731 48.267 3.01566 44.4566C1.34676 40.5103 0.5 36.3191 0.5 32.0001C0.5 27.681 1.34676 23.4899 3.01566 19.5436C4.62731 15.7328 6.93461 12.3108 9.873 9.3726C12.8107 6.43435 16.2331 4.12731 20.0435 2.51553C23.9904 0.846297 28.181 0 32.5 0C36.819 0 41.0103 0.846297 44.9565 2.51553C48.7676 4.12731 52.1893 6.43435 55.1277 9.3726C58.066 12.3108 60.3727 15.7328 61.985 19.5436C63.6539 23.4899 64.5 27.681 64.5 32.0001C64.5 36.3191 63.6539 40.5103 61.985 44.4566C60.3727 48.267 58.066 51.6893 55.1277 54.6277C52.1893 57.5654 48.7676 59.8727 44.9565 61.4844C41.0103 63.154 36.819 64.0001 32.5 64.0001Z" fill="#B8B8FF"/>
<path d="M25.5847 28.8023H20.7458C19.9689 28.8023 19.3398 28.1726 19.3398 27.3964C19.3398 26.6195 19.9689 25.9897 20.7458 25.9897H25.5847C26.3616 25.9897 26.9913 26.6195 26.9913 27.3964C26.9913 28.1726 26.3616 28.8023 25.5847 28.8023Z" fill="#B8B8FF"/>
<path d="M44.2573 28.8023H39.4177C38.6415 28.8023 38.0117 28.1726 38.0117 27.3964C38.0117 26.6195 38.6415 25.9897 39.4177 25.9897H44.2573C45.0335 25.9897 45.6632 26.6195 45.6632 27.3964C45.6632 28.1726 45.0335 28.8023 44.2573 28.8023Z" fill="#B8B8FF"/>
</svg>
