<svg width="65" height="64" viewBox="0 0 65 64" fill="none" xmlns="http://www.w3.org/2000/svg">
<path d="M62.5777 31.9983C62.5777 48.6108 49.1105 62.0779 32.4979 62.0779C15.8852 62.0779 2.41797 48.6108 2.41797 31.9983C2.41797 15.3857 15.8852 1.91846 32.4979 1.91846C49.1105 1.91846 62.5777 15.3857 62.5777 31.9983Z" fill="#F8F7FF"/>
<path d="M32.4987 3.83771C28.6962 3.83771 25.0084 4.58206 21.5378 6.04999C18.1847 7.46827 15.1728 9.49902 12.5859 12.0859C9.99902 14.6728 7.96827 17.6846 6.54999 21.0378C5.08199 24.5084 4.33771 28.1964 4.33771 31.9987C4.33771 35.801 5.08199 39.4888 6.54999 42.9596C7.96827 46.3126 9.99902 49.3248 12.5859 51.9115C15.1728 54.4983 18.1847 56.5293 21.5378 57.9478C25.0084 59.4156 28.6962 60.1598 32.4987 60.1598C36.3013 60.1598 39.9891 59.4156 43.4597 57.9478C46.8129 56.5293 49.8247 54.4983 52.4116 51.9115C54.9985 49.3248 57.0293 46.3126 58.4475 42.9596C59.9154 39.4888 60.6598 35.801 60.6598 31.9987C60.6598 28.1964 59.9154 24.5084 58.4475 21.0378C57.0293 17.6846 54.9985 14.6728 52.4116 12.0859C49.8247 9.49902 46.8129 7.46827 43.4597 6.04999C39.9891 4.58206 36.3013 3.83771 32.4987 3.83771ZM32.4987 63.9974C28.1798 63.9974 23.989 63.1514 20.0428 61.4819C16.2322 59.8703 12.8103 57.5631 9.87221 54.6255C6.93408 51.6872 4.62714 48.265 3.01543 44.4547C1.34626 40.5086 0.5 36.3176 0.5 31.9987C0.5 27.6799 1.34626 23.489 3.01543 19.5428C4.62714 15.7321 6.93408 12.3103 9.87221 9.37221C12.8103 6.43408 16.2322 4.12714 20.0428 2.51543C23.989 0.846262 28.1798 0 32.4987 0C36.8177 0 41.0085 0.846262 44.9547 2.51543C48.7653 4.12714 52.1872 6.43408 55.1253 9.37221C58.0633 12.3103 60.3703 15.7321 61.9821 19.5428C63.6512 23.489 64.4975 27.6799 64.4975 31.9987C64.4975 36.3176 63.6512 40.5086 61.9821 44.4547C60.3703 48.265 58.0633 51.6872 55.1253 54.6255C52.1872 57.5631 48.7653 59.8703 44.9547 61.4819C41.0085 63.1514 36.8177 63.9974 32.4987 63.9974Z" fill="#B8B8FF"/>
<path d="M42.7525 39.834C43.0176 39.834 43.2863 39.9026 43.5318 40.0463C44.267 40.4764 44.5129 41.4236 44.0826 42.1585C44.0412 42.2297 43.0475 43.9085 41.1564 45.5701C38.613 47.8047 35.6185 48.9863 32.4967 48.9863C29.3748 48.9863 26.3803 47.8047 23.8369 45.5701C21.9458 43.9085 20.9521 42.2297 20.9108 42.1585C20.4804 41.4236 20.7275 40.4783 21.4628 40.0483C22.1967 39.6183 23.1393 39.8639 23.5708 40.5962C23.5805 40.6122 24.4032 41.9814 25.9457 43.3161C27.9281 45.0309 30.1322 45.9009 32.4967 45.9009C34.8611 45.9009 37.0652 45.0309 39.0476 43.3161C40.5915 41.9801 41.4144 40.6095 41.4226 40.5962C41.7093 40.1062 42.2236 39.834 42.7525 39.834Z" fill="#B8B8FF"/>
<path d="M17.7855 29.2964C16.9723 28.7046 16.9343 27.4978 17.7188 26.8687C18.7268 26.0606 20.2591 25.1992 22.2119 25.1992C24.1636 25.1992 25.6952 26.0593 26.7031 26.8674C27.4888 27.4964 27.4506 28.7053 26.6364 29.2977C26.0768 29.7045 25.3156 29.6852 24.7746 29.2538C24.1785 28.7792 23.2883 28.2693 22.2119 28.2693C21.1279 28.2693 20.2388 28.7779 19.6451 29.2531C19.1053 29.6845 18.3444 29.7031 17.7855 29.2964Z" fill="#B8B8FF"/>
<path d="M38.3597 29.2964C37.5465 28.7046 37.5085 27.4978 38.293 26.8687C39.301 26.0606 40.8332 25.1992 42.7861 25.1992C44.7378 25.1992 46.2693 26.0593 47.2774 26.8674C48.063 27.4964 48.0248 28.7053 47.2106 29.2977C46.651 29.7045 45.8898 29.6852 45.3487 29.2538C44.7526 28.7792 43.8624 28.2693 42.7861 28.2693C41.7021 28.2693 40.813 28.7779 40.2192 29.2531C39.6795 29.6845 38.9186 29.7031 38.3597 29.2964Z" fill="#B8B8FF"/>
</svg>
