<svg width="65" height="64" viewBox="0 0 65 64" fill="none" xmlns="http://www.w3.org/2000/svg">
<g clip-path="url(#clip0_691_6483)">
<path d="M62.5778 31.9988C62.5778 48.6113 49.1106 62.0784 32.4982 62.0784C15.8858 62.0784 2.41797 48.6113 2.41797 31.9988C2.41797 15.3862 15.8858 1.91895 32.4982 1.91895C49.1106 1.91895 62.5778 15.3862 62.5778 31.9988Z" fill="#F8F7FF"/>
<path d="M32.4987 3.83771C28.6957 3.83771 25.0079 4.58206 21.5378 6.05C18.1841 7.46827 15.1727 9.49903 12.5859 12.0859C9.99909 14.6728 7.96814 17.6846 6.5496 21.0378C5.0818 24.5084 4.33758 28.1965 4.33758 31.9988C4.33758 35.8011 5.0818 39.4889 6.5496 42.9597C7.96814 46.3126 9.99909 49.3248 12.5859 51.9116C15.1727 54.4984 18.1848 56.5293 21.5378 57.9479C25.0079 59.4157 28.6957 60.1599 32.4987 60.1599C36.301 60.1599 39.9888 59.4157 43.4596 57.9479C46.8126 56.5293 49.8247 54.4984 52.4115 51.9116C54.9983 49.3248 57.0293 46.3126 58.4471 42.9597C59.9156 39.4889 60.6598 35.8011 60.6598 31.9988C60.6598 28.1965 59.9156 24.5084 58.4471 21.0378C57.0293 17.6846 54.9983 14.6728 52.4115 12.0859C49.8247 9.49903 46.8126 7.46827 43.4596 6.05C39.9888 4.58206 36.301 3.83771 32.4987 3.83771ZM32.4987 63.9975C28.1798 63.9975 23.9888 63.1514 20.0427 61.4819C16.2317 59.8703 12.8102 57.5631 9.87194 54.6255C6.93368 51.6872 4.62714 48.265 3.01556 44.4548C1.34606 40.5087 0.5 36.3176 0.5 31.9988C0.5 27.6799 1.34606 23.489 3.01556 19.5428C4.62714 15.7322 6.93368 12.3103 9.87194 9.37222C12.8102 6.43409 16.2317 4.12714 20.0427 2.51543C23.9888 0.846262 28.1798 0 32.4987 0C36.8176 0 41.0086 0.846262 44.9547 2.51543C48.765 4.12714 52.1872 6.43409 55.1254 9.37222C58.063 12.3103 60.3702 15.7321 61.9818 19.5428C63.6513 23.489 64.4974 27.6799 64.4974 31.9988C64.4974 36.3176 63.6513 40.5087 61.9818 44.4548C60.3702 48.265 58.063 51.6872 55.1254 54.6255C52.1872 57.5631 48.765 59.8703 44.9547 61.4819C41.0086 63.1514 36.8176 63.9975 32.4987 63.9975Z" fill="#B8B8FF"/>
<path d="M22.0886 48.9872C21.8236 48.9872 21.5547 48.9187 21.3097 48.7749C20.5742 48.3442 20.3285 47.3976 20.7586 46.6621C20.7998 46.5915 21.7937 44.912 23.6848 43.2505C26.2284 41.0159 29.2225 39.835 32.3445 39.835C35.4665 39.835 38.4607 41.0159 41.0042 43.2505C42.8954 44.912 43.8892 46.5915 43.9305 46.6621C44.3612 47.3976 44.1135 48.3422 43.3786 48.7729C42.6444 49.2023 41.7018 48.9566 41.2705 48.2251C41.2612 48.2091 40.4384 46.8398 38.8954 45.5051C36.913 43.7897 34.709 42.9203 32.3445 42.9203C29.9801 42.9203 27.776 43.7897 25.7937 45.5051C24.25 46.8411 23.4266 48.2111 23.4186 48.2251C23.1323 48.715 22.6178 48.9872 22.0886 48.9872Z" fill="#B8B8FF"/>
<path d="M47.0554 25.4934C47.8689 26.0852 47.9068 27.292 47.122 27.9211C46.1142 28.7292 44.5818 29.5906 42.6287 29.5906C40.677 29.5906 39.1459 28.7306 38.1374 27.9231C37.352 27.2934 37.3899 26.0845 38.2047 25.4921C38.7638 25.0852 39.5254 25.1045 40.0666 25.536C40.6623 26.0106 41.5523 26.5205 42.6287 26.5205C43.7131 26.5205 44.6018 26.012 45.1955 25.5373C45.7354 25.1055 46.4962 25.0871 47.0554 25.4934Z" fill="#B8B8FF"/>
<path d="M26.4845 25.4934C27.298 26.0852 27.3359 27.292 26.5517 27.9211C25.5432 28.7292 24.0115 29.5906 22.0585 29.5906C20.1067 29.5906 18.575 28.7306 17.5672 27.9231C16.7817 27.2934 16.8197 26.0845 17.6338 25.4921C18.1936 25.0852 18.9545 25.1045 19.4956 25.536C20.0921 26.0106 20.9821 26.5205 22.0585 26.5205C23.1422 26.5205 24.0315 26.012 24.6253 25.5373C25.1652 25.1055 25.926 25.0871 26.4845 25.4934Z" fill="#B8B8FF"/>
</g>
<defs>
<clipPath id="clip0_691_6483">
<rect width="64" height="64" fill="white" transform="translate(0.5)"/>
</clipPath>
</defs>
</svg>
