<svg width="375" height="232" viewBox="0 0 375 232" fill="none" xmlns="http://www.w3.org/2000/svg">
<mask id="mask0_157_7880" style="mask-type:alpha" maskUnits="userSpaceOnUse" x="0" y="0" width="375" height="166">
<path d="M375 30C375 13.4315 361.569 0 345 0H30C13.4314 0 0 13.4315 0 30V136C0 152.569 13.4315 166 30 166H345C361.569 166 375 152.569 375 136V30Z" fill="url(#paint0_linear_157_7880)"/>
</mask>
<g mask="url(#mask0_157_7880)">
<g filter="url(#filter0_d_157_7880)">
<path d="M375 30C375 13.4315 361.569 0 345 0H30C13.4314 0 0 13.4315 0 30V136C0 152.569 13.4315 166 30 166H345C361.569 166 375 152.569 375 136V30Z" fill="#9381FF"/>
</g>
<path d="M44.7523 -40.433C-80.1771 -65.9669 -2.90299 164.783 -68.061 -31.8495L63.4001 -179.065L486.057 -101.783L593.565 14.0991L522.522 172.904L361.377 253.955C391.825 213.963 499.433 64.1542 305.97 80.1246C64.1405 100.088 241.844 -0.150225 44.7523 -40.433Z" fill="url(#paint1_linear_157_7880)" fill-opacity="0.12"/>
<path d="M-13.1959 32.3839C-142.61 34.0001 16.4609 239.521 -118.427 64.2426L-46.2443 -104.711L388.237 -118.925L534.127 -30.0916L524.253 137.351L423.511 241.305C438.062 196.509 462.091 37.7013 282.09 93.5372C57.0901 163.332 190.97 29.8342 -13.1959 32.3839Z" fill="url(#paint2_linear_157_7880)" fill-opacity="0.12"/>
<path d="M-20.3357 100.763C-145.815 124.712 71.4366 297.261 -113.091 149.968L-94.1385 -26.9703L324.466 -115.928L493.452 -54.6826L534.69 110.012L446.882 240.258C447.443 194.138 443.919 23.7617 285.665 109.234C87.8473 216.074 177.624 62.9806 -20.3357 100.763Z" fill="url(#paint3_linear_157_7880)" fill-opacity="0.12"/>
</g>
<defs>
<filter id="filter0_d_157_7880" x="-62" y="-58" width="499" height="290" filterUnits="userSpaceOnUse" color-interpolation-filters="sRGB">
<feFlood flood-opacity="0" result="BackgroundImageFix"/>
<feColorMatrix in="SourceAlpha" type="matrix" values="0 0 0 0 0 0 0 0 0 0 0 0 0 0 0 0 0 0 127 0" result="hardAlpha"/>
<feOffset dy="4"/>
<feGaussianBlur stdDeviation="31"/>
<feComposite in2="hardAlpha" operator="out"/>
<feColorMatrix type="matrix" values="0 0 0 0 0.600625 0 0 0 0 0.670375 0 0 0 0 0.775 0 0 0 0.18 0"/>
<feBlend mode="normal" in2="BackgroundImageFix" result="effect1_dropShadow_157_7880"/>
<feBlend mode="normal" in="SourceGraphic" in2="effect1_dropShadow_157_7880" result="shape"/>
</filter>
<linearGradient id="paint0_linear_157_7880" x1="379" y1="166" x2="60.6841" y2="-78.8817" gradientUnits="userSpaceOnUse">
<stop stop-color="#7551FF"/>
<stop offset="1" stop-color="#A993FF"/>
</linearGradient>
<linearGradient id="paint1_linear_157_7880" x1="-4.46382" y1="248.866" x2="290.983" y2="-162.88" gradientUnits="userSpaceOnUse">
<stop stop-color="white"/>
<stop offset="1" stop-color="white" stop-opacity="0"/>
</linearGradient>
<linearGradient id="paint2_linear_157_7880" x1="45.873" y1="320.632" x2="218.966" y2="-120.874" gradientUnits="userSpaceOnUse">
<stop stop-color="white"/>
<stop offset="1" stop-color="white" stop-opacity="0"/>
</linearGradient>
<linearGradient id="paint3_linear_157_7880" x1="124.698" y1="371.128" x2="210.643" y2="-78.7117" gradientUnits="userSpaceOnUse">
<stop stop-color="white"/>
<stop offset="1" stop-color="white" stop-opacity="0"/>
</linearGradient>
</defs>
</svg>
